<?xml version="1.0" encoding="utf-8"?><svg xmlns="http://www.w3.org/2000/svg" viewBox="0 0 424.28 135.63"><defs><style>.cls-1,.cls-2{fill:#384354;}.cls-1{fill-rule:evenodd;}.cls-3{fill:#4ab9b3;}</style></defs><title>Asset 1</title><g id="Layer_2" data-name="Layer 2"><g id="Layer_1-2" data-name="Layer 1"><path class="cls-1" d="M163.51,44.25c-11,0-19.82,4.42-28.68,13.1l-.89-7.46a5,5,0,0,0-5-4.4h-9.86a5,5,0,0,0-5,5v77.45a5,5,0,0,0,5,5h11.42a5,5,0,0,0,5-5V86.75c0-12.5,10.05-23,22.56-22.85,13.64.12,20.82,10.17,20.82,23.37v40.67a5,5,0,0,0,5,5h11.59a5,5,0,0,0,5-5V87.09C200.51,59.65,184.05,44.25,163.51,44.25Z"/><path class="cls-2" d="M356.59,127.94a5,5,0,0,1-5,5H340a5,5,0,0,1-5-5V85.85c0-11.51-4.78-21.24-16.47-21.24s-18.94,10.09-18.94,21.6v41.73a5,5,0,0,1-5,5H283a5,5,0,0,1-5-5V86.21c0-11.51-6-22-17.88-22-11.68,0-18.59,10.45-18.59,22v41.73a5,5,0,0,1-5,5h-11.6a5,5,0,0,1-5-5V50.49a5,5,0,0,1,5-5h10.7a5,5,0,0,1,4.95,4.26l1,6.36c4.61-8.85,14.7-12,23-12,10.44,0,20.89,4.25,25.84,16.29,7.79-12.39,17.88-15.93,29.21-15.93,24.79,0,37,15.22,37,41.42Z"/><path class="cls-2" d="M89.71,45.7h-11a5,5,0,0,0-5,4.7l-.43,7.33c-5-8.67-16.11-14.16-27.8-14.16C20,43.39,0,59.15,0,89.25c0,30.62,19.11,46.56,45,46.38,9.74-.18,23.37-5.14,28.33-15.4l.68,8.16A5,5,0,0,0,79,133H89.71a5,5,0,0,0,5-5V50.7A5,5,0,0,0,89.71,45.7ZM66.08,108.57A27,27,0,1,1,27.89,70.5a26.82,26.82,0,0,1,19.72-8.43,26.92,26.92,0,0,1,18.47,46.5Z"/><path class="cls-3" d="M415.43,6.45A26.08,26.08,0,0,0,372.12,26v23a3.06,3.06,0,0,0,3.05,3h23A26.08,26.08,0,0,0,415.43,6.45ZM398.2,34.26A8.23,8.23,0,1,1,406.43,26,8.24,8.24,0,0,1,398.2,34.26Z"/></g></g></svg>
